<?xml version="1.0" standalone="no"?><!DOCTYPE svg PUBLIC "-//W3C//DTD SVG 1.1//EN" "http://www.w3.org/Graphics/SVG/1.1/DTD/svg11.dtd"><svg t="1569068681719" class="icon" viewBox="0 0 2778 1024" version="1.1" xmlns="http://www.w3.org/2000/svg" p-id="9453" xmlns:xlink="http://www.w3.org/1999/xlink" width="542.578125" height="200"><defs><style type="text/css"></style></defs><path d="M1338.60241 8.139566l169.632385 72.216675L1338.60241 152.576v153.100337a6.168675 6.168675 0 0 1-12.33735 0V6.168675a6.168675 6.168675 0 0 1 12.33735 0v1.970891z" fill="#E95937" p-id="9454"></path><path d="M0 743.325301h2775.903614v52.217832L0 811.742072z" fill="#E3E3E1" p-id="9455"></path><path d="M0 811.957976L2775.903614 795.759036v224.681639l-2775.903614 1.468144z" fill="#DE3439" p-id="9456"></path><path d="M0 877.444627c59.978024 11.026506 102.356819 58.688771 127.13947 142.996048-40.497349-0.431807-82.876145-0.431807-127.13947 0v-142.996048z m219.62641 142.996048c15.107084-87.471807 57.572241-131.207711 127.389301-131.207711 69.813976 0 112.279133 43.735904 127.386217 131.207711H219.62641z m338.19759 0c17.525205-87.471807 58.627084-128.894458 123.308723-124.274121 64.678554 4.626506 105.780434 46.049157 123.305638 124.274121h-246.614361z m334.564241 0c13.910361-74.175229 48.664675-111.261301 104.275277-111.261302 55.607518 0 98.522988 37.465446 128.740241 112.393254l-233.015518-1.131952z m281.075663 0C1199.455614 920.002313 1254.615904 869.783133 1338.941687 869.783133s139.479904 50.59547 165.474699 151.789494l-330.949398-1.131952z m442.466698 0c27.81147-74.175229 68.614169-111.261301 122.408097-111.261302s91.268627 37.465446 112.424096 112.393254l-234.832193-1.131952z m327.316049 0c22.367614-83.079711 64.678554-124.619566 126.938988-124.619567s100.339663 41.539855 114.243855 124.619567h-241.182843z m324.595662 0c21.763084-91.098988 63.167229-136.648482 124.218603-136.648482 91.573976 0 124.218602 92.539373 128.749494 136.648482-18.737349 0.175807-103.060048 0.175807-252.965012 0z m343.641446 1.131952c28.403663-90.978699 72.225928-139.020337 131.463711-144.128 12.278747-1.057928 23.465639-1.44347 33.563759-1.153543 0.595277 26.155181-0.012337 74.585446-1.825928 145.281543h-163.201542z" fill="#760403" p-id="9457"></path><path d="M1335.518072 795.759036m-52.433735 0a52.433735 52.433735 0 1 0 104.86747 0 52.433735 52.433735 0 1 0-104.86747 0Z" fill="#F8D152" p-id="9458"></path><path d="M1335.518072 795.759036m-37.012048 0a37.012048 37.012048 0 1 0 74.024096 0 37.012048 37.012048 0 1 0-74.024096 0Z" fill="#E5393D" p-id="9459"></path><path d="M468.819277 598.361446h1841.349398v144.963855H468.819277z" fill="#6B0602" p-id="9460"></path><path d="M460.337349 598.361446H502.746988l-24.66853 144.963855H434.891566l25.445783-144.963855z m154.216868 0H656.963855l-24.674698 144.963855h-43.180723l25.445783-144.963855z m154.216867 0H811.180723l-24.674699 144.963855h-43.180723l25.445783-144.963855z m156.530121 0h42.409638L953.060241 743.325301h-43.180723l15.421687-144.963855z m175.807229 0h42.409638L1128.86747 743.325301h-43.180723l15.421687-144.963855z m179.66265 0H1323.180723v144.482699h-43.180723l0.771084-144.482699z m181.20482 0h42.409638l1.566844 144.482699h-43.180723L1461.975904 598.361446z m169.638554 0h42.409638l11.566265 144.482699h-43.180722L1631.614458 598.361446z m172.722891 0h42.409639l18.506024 144.482699h-43.180723L1804.337349 598.361446z m151.132531 0h42.409638l24.674699 144.482699h-43.180723L1955.46988 598.361446z m148.048192 0h42.409639l30.072289 144.482699h-43.180723L2103.518072 598.361446z m169.638555 0h42.409638l33.477398 144.963855h-43.643374L2273.156627 598.361446z" fill="#DE3439" p-id="9461"></path><path d="M354.871518 471.903614c5.351325 46.26506 17.92 78.672193 37.70294 97.221398 18.209928 17.077976 56.585253 45.139277 93.569542 45.139277H2289.226024c17.710265 0 77.842506-7.297542 95.521928-24.702458 24.708627-24.326169 24.128771-66.501398 28.921831-126.911229-29.301205 18.182169-44.722892 30.843373-129.542169 30.843374s-1605.962024-2.226892-1749.590361 0c-95.753253 1.483566-155.641831-5.712193-179.668819-21.590362z" fill="#FED862" p-id="9462"></path><path d="M353.064096 471.626024c32.903711 51.890892 71.201928 78.228048 114.897735 79.014554 43.692723 0.783422 252.144578-0.39788 625.349398-3.540819H2266.987952c47.776386 0 68.546313 3.917108 104.016193-25.371759 23.64453-19.523855 37.520964-38.187181 41.635469-55.99306 3.602506 74.347952-10.277012 118.975229-41.638554 133.884915-31.358458 14.909687-99.984964 19.699663-205.882602 14.363759l-1030.939759 4.142266c-422.12241-0.231325-642.331759-1.613108-660.634217-4.142266-27.444434-3.793735-70.862651-29.649735-97.079518-59.913253-17.475855-20.177735-25.276145-47.659181-23.394699-82.444337z" fill="#E0763E" p-id="9463"></path><path d="M598.361446 437.975904l1556.819277-12.33735 29.248771 68.392097L589.108434 492.722892z" fill="#750706" p-id="9464"></path><path d="M638.843373 437.975904h39.325302l-7.078555 54.808674h-40.096385l7.849638-54.808674z m123.373494-1.027085h39.325302l-8.216675 55.986892h-40.096386l8.987759-55.986892z m109.493976-1.449638h39.325302L906.795181 494.030651h-40.096386l5.012048-58.53147zM977.73494 434.891566h39.325301l-6.02988 58.247711h-40.096385L977.73494 434.891566z m124.144578-1.320096H1141.204819v59.780626h-40.096385l0.771084-59.780626z m125.686747-0.761831h39.325301v60.582554l-39.325301 0.252915v-60.835469z m132.626506-1.00241h39.325301v61.816289H1360.192771V431.807229z m157.301205-1.387952h39.325301v63.611374l-39.325301-0.407133V430.419277z m157.301205-1.696385h39.325301l5.783132 65.156626H1680.192771L1674.795181 428.722892z m144.963855 0h38.578892l4.216289 65.307759H1822.843373L1819.759036 428.722892z m122.793639-1.412627h36.897927l12.531663 66.720386h-37.012048l-12.417542-66.720386zM2060.337349 425.638554h40.096386l19.277108 68.240964H2078.843373L2060.337349 425.638554z" fill="#DE3439" p-id="9465"></path><path d="M593.978602 464.717108C552.179663 429.839422 524.852434 391.112482 512 348.53012c23.135614 21.590361 53.747663 51.674988 177.892241 51.674988 82.762024 0 332.929542-1.014747 750.49947-3.044241 348.295711-1.104193 551.954506-2.091181 610.970217-2.960963 88.529735-1.304675 176.211277-10.252337 196.348915-45.669784-6.16559 19.329542-35.414361 93.202506-77.049831 113.275374-5.65359-13.839422-10.835277-25.87759-15.54506-36.111422l-1556.695904 12.938795-4.441446 26.081157z" fill="#E0763E" p-id="9466"></path><path d="M512 348.53012c76.081349 17.73494 136.481928 17.73494 181.204819 0s80.707855-50.635566 107.951808-98.698795c41.12347 17.47894 101.527133 28.27412 181.204819 32.385542 119.518072 6.168675 377.060241 13.108434 516.626506 13.108434s394.795181-6.168675 479.614458-37.012048c16.963855 21.590361 61.689831 94.843373 145.734939 103.325301 56.030072 5.65359 97.156627 1.286169 123.373494-13.108434-15.939855 25.183614-43.698892 39.834217-83.280192 43.948723-39.581301 4.114506-220.53012 6.683759-542.843374 7.710844h-957.686747C596.560193 400.189687 545.927711 382.969831 512 348.53012z" fill="#FED862" p-id="9467"></path></svg>