<?xml version="1.0" standalone="no"?><!DOCTYPE svg PUBLIC "-//W3C//DTD SVG 1.1//EN" "http://www.w3.org/Graphics/SVG/1.1/DTD/svg11.dtd"><svg t="1569068593020" class="icon" viewBox="0 0 1024 1024" version="1.1" xmlns="http://www.w3.org/2000/svg" p-id="8272" xmlns:xlink="http://www.w3.org/1999/xlink" width="200" height="200"><defs><style type="text/css"></style></defs><path d="M698.134591 859.295701c0.500901-10.215945 1.001802-20.433412 1.64734-33.58549-7.243272 8.800785-13.076714 15.884957-18.910155 22.971412 0.931767 0.826715 1.863534 1.654953 2.796824 2.481668 3.255095-3.757519 6.510952-7.514277 9.765286-11.271795 0.752113 16.825098 0.344845 33.554278-7.696976 48.435911-20.345107 37.634566-41.41949 74.87709-62.212211 112.273386-0.561801 1.009415-1.241595 1.953362-1.880282 2.921669-17.464546 26.469346-28.820079 27.327272-47.371686 2.286788-5.979601-8.073032-11.670689-11.771174-21.946773-10.244111-15.468554 2.298968-26.959589-3.461394-32.612615-19.233686-2.283743-6.372405-6.408184-12.081763-8.829713-16.509941-10.52425 6.60763-19.534379 14.368551-29.985549 18.268424-11.836641 4.419043-22.26878-0.984293-29.299665-15.911601 0.510036 23.906224-17.652574 31.164722-27.962152 43.629392-2.00741 2.429142-11.318993 1.773707-15.049868-0.740694-10.46335-7.052199-21.785388-6.339671-33.256631-7.202165-3.872467-0.291558-9.179887-2.954403-10.980999-6.143269-38.821352-68.732298-59.505976-142.813123-64.689311-221.459151-1.291076-19.580053 8.710197-35.634769 14.596926-53.039176 5.146035-15.214298 10.620167-30.38901 14.439347-45.951198 2.00741-8.174278 4.829356-12.112974 13.526611-11.716364 5.571572 0.252734 11.209373-0.93938 17.482055-1.547617-1.025401-1.677029-1.426578-2.683398-1.650385-2.646858-15.719005 2.646858-23.783664-6.564239-31.890191-18.333891-26.15495-37.964187-39.94876-80.616137-50.702907-124.798195-10.814286-44.418806-22.47584-89.262389-16.716239-134.908327 5.493164-43.554029-8.474971-80.08707-28.161599-116.635336-26.391698-48.993144-9.43795-120.293892 35.517536-153.543672 17.350359-12.83007 33.938709-26.816475 51.995505-38.548825 28.938833-18.797491 60.191098-32.400227 94.181572-40.262394 35.622589-8.243552 70.565383-18.840882 107.83455-17.568837 42.935134 1.467686 83.607079 10.695531 122.721511 28.706653 21.639229 9.966256 44.172162 18.559981 67.072017 25.070933 23.297226 6.622094 41.637207 19.439223 54.424647 38.788618 14.210212 21.502204 27.024295 44.197283 37.696989 67.625444 3.949353 8.668328 2.499176 21.691755-0.685123 31.343615-7.809641 23.661864-17.838319 46.608155-27.439936 69.647318-3.847346 9.230129-9.216427 17.811675-13.366749 26.929139-5.794618 12.728824-11.526052 25.566506-1.229415 39.05201 1.730316 2.266996 2.104089 5.819739 2.442844 8.854073 3.118832 27.953017 8.905837 55.992056 8.251164 83.871232-0.558756 23.835428-6.407422 48.459509-24.072176 67.148903-4.785203 5.06382-11.628059 8.732273-18.195344 11.39055-5.7596 2.330179-8.465075 4.875031-9.077118 11.351726-1.341319 14.200316-4.317036 28.252188-5.506105 42.457071-0.48187 5.745137 0.648583 12.416712 3.289352 17.502608 13.107925 25.241453 26.790592 50.190587 40.634644 75.042281 6.374689 11.43927 14.453811 22.004628 20.036802 33.783414 2.780838 5.865414 4.250046 14.663154 1.877998 20.252235-8.874626 20.90767-19.063166 41.312915-29.721396 61.396154-15.158726 28.564299-31.16396 56.681746-46.813692 84.98646-0.713289 1.290315-1.477582 2.55018-2.218276 3.823747C699.533764 859.621515 698.834178 859.459369 698.134591 859.295701zM346.022488 912.324219l-0.327337-0.379101c0.265675 3.043469-0.157578 6.356419 0.907407 9.087776 7.225002 18.569116 14.48959 37.135949 22.419508 55.407418 1.693776 3.907485 5.668251 8.306735 9.487431 9.428053 4.701466 1.377097 12.162455 1.528585 15.204401-1.281941 6.960849-6.43635 13.203842-14.352565 17.542954-22.797086 18.341503-35.697191 36.077053-71.711822 53.591842-107.826938 5.482506-11.303007 15.164816-23.607815-3.615927-33.694348 8.532065-2.579869 15.393191-4.653508 20.293343-6.134896 1.29336 13.937685 2.97115 27.864713 3.684439 41.838938 0.278617 5.437593-1.618413 10.986328-2.531149 16.519837 14.89838-6.628184 4.565203 18.641435 18.155759 17.82081 0.28699-3.950115 0.555711-7.655869 0.827476-11.360861 0.55495-0.074602 1.108377-0.146921 1.66561-0.221523 1.122079 4.676345 2.244158 9.351929 3.414196 14.228482-11.716364 1.58035-9.332136 9.503417-7.177044 15.317066 8.698778 23.461656 17.934997 46.736806 27.483328 69.869602 5.3569 12.981558 15.192221 18.110845 27.680491 11.777264 14.911321-7.560713 29.826448-16.538107 41.908211-27.913433 16.213055-15.262256 30.000013-33.172132 44.214031-50.450172 4.671777-5.679669 7.008047-13.211455 11.151518-19.399638 8.091302-12.087853 17.157002-23.546915 24.789272-35.903489 1.986095-3.216272 1.654953-11.891451-0.148443-12.752422-10.013453-4.784442-20.997497-11.342592-31.289566-10.773178-12.717405 0.70187-25.976057 2.951358-36.867229 14.781909-6.804794 7.392477-21.600405 7.670332-32.98791 10.406257-2.383467 0.572458-7.371923-1.444848-8.040299-3.358625-3.78873-10.849303-13.157406-10.041619-21.430647-10.883559-10.320236-1.051283-20.772929-0.792459-31.087836-1.868863-3.433989-0.357025-6.61981-3.088382-10.010408-4.779875 7.983966-2.291356 13.911803-3.562639 19.509257-5.701746 8.243552-3.149282 15.906272-6.386107 23.301794 2.188587 2.162705 2.508311 6.710399 2.95897 10.74958 4.586518-10.772417-11.922662-20.527807-22.717155-30.379114-33.621268 14.181284-8.660716 26.76471-15.482257 38.419413-23.631414 35.449785-24.786988 68.803856-51.703947 96.197356-85.91366 20.262893-25.302353 27.124019-54.895859 35.0684-81.69178-11.633388 20.246145-22.762069 43.758043-37.620864 64.612425-30.258076 42.466206-66.752293 78.633087-114.715469 101.580139-14.608344 6.986732-28.3816 15.769247-43.152851 22.35404-16.634025 7.413031-33.498707 8.532826-48.989338-3.940218-9.008606-7.25393-18.423718-14.006959-27.361528-21.343103-5.506866-4.52105-10.822659-7.114621-20.495073-0.740694 18.110084 13.293669 35.036428 25.724845 51.965055 38.151454-6.911368-0.48796-13.273877-2.321044-18.0469-6.137941-18.074305-14.463707-35.557121-29.662019-53.443398-44.361713-3.83745-3.155372-10.760998-4.445687-12.286539-8.203967-7.53483-18.58358-13.731387-37.706885-20.406007-56.638355-1.552945-4.402296-3.12949-8.79774-4.207416-11.825984-6.304654 3.219317-13.642321 4.456344-15.435821 8.289227-11.031241 23.564424-32.473307 44.292439-22.275632 74.276466 0.412596 1.213429 0.251212 3.223123-0.51232 4.140427-8.741408 10.518921-4.429701 20.950299-0.29308 31.587214 1.644295 4.228731 3.845062 12.444878 3.215511 12.709031-7.348325 3.08686-3.036617 8.290749-1.883327 11.532903 6.577181 18.47396 13.570002 36.811658 20.933552 54.986448C336.662186 893.840363 341.577563 902.987516 346.022488 912.324219zM613.063632 110.375595l0.366921 0.333427c-7.673377-6.750745-15.345993-13.50149-23.017848-20.252235 0.788653-0.778756 1.578067-1.557513 2.366719-2.333986 2.320283 0.386714 4.640566 0.77495 6.960849 1.163948 0.422493-1.247685 0.845746-2.49537 1.269761-3.741533-19.704137-7.96189-39.159346-16.650772-59.241061-23.505047-7.476214-2.551702-13.601975-7.971025-23.004146-7.590401-11.961486 0.487199-24.096536-3.279455-36.153939-5.231295-2.601184-0.418686-5.358423-1.741735-7.752547-1.245401-13.729864 2.834887-27.497791 5.63095-41.023641 9.286461-91.406824 24.697161-136.250406 94.360465-148.297913 182.904997-2.441322 17.941087-6.649499 35.636291-9.543763 53.524091-4.058212 25.080068-9.202724 50.115984-11.12792 75.381036-4.55759 59.799056 8.418639 117.521428 24.078266 174.694179 7.682512 28.04589 16.481775 55.675377 36.975326 77.636613 2.548657 2.726789 5.436831 5.676624 8.774903 7.047632 23.291136 9.573452 45.894866 20.23701 65.251112 36.975326-7.443481 5.788528-14.516995 11.289304-23.132035 17.987523-0.149205-0.038824-3.650183-0.948515-7.152684-1.861251-1.046716 0.767338-2.094193 1.533153-3.142431 2.299729 8.619608 19.736109 17.239217 39.472218 25.5018 58.388464-0.78104-0.143115-3.533712-0.639448-6.462993-1.173083 0.851836 20.003307 14.256648 32.56694 27.22222 25.545191-3.427137-4.460151-6.823064-8.880716-12.100794-15.748693 10.707711 7.801267 18.576729 13.537269 25.030587 18.238735 13.168064-20.714313 0.85412-34.839265-10.030962-49.702627 4.736484-0.391281 6.678427-0.550382 10.961968-0.899795-4.958768-2.887413-7.920783-4.556829-10.828749-6.31455-9.67013-5.843338-9.622933-8.739124-1.266716-16.050148 2.965821-2.595855 5.022713-6.827631 6.206453-10.706188 1.504987-4.927557 1.700627-10.254768 2.47101-15.477689 10.037813 0.499379 19.693479 8.567082 26.993084-2.976479 0.496334-0.786369 2.8798-0.389759 4.387071-0.523738 12.839966-1.131214 25.660139-2.627066 38.523704-3.303815 19.723168-1.036058 31.626038-12.572768 40.483917-28.708936 2.986375-5.439876 6.014618-11.069304 13.854709-6.979119 1.827756-15.858313-3.313711-25.558132-17.536864-26.945125-30.77953-3.0016-60.735391-16.044058-92.622536-7.796699-3.669214 0.948515-10.334699-2.288311-12.782111-5.642368-4.282019-5.877594-6.366315-13.353047-9.430337-20.290298 46.876875 6.408184 77.78734 4.140427 93.583231-8.287704-12.78744 1.201249-23.422832 2.200767-33.786459 3.172881-3.604508-14.582462 9.631307-12.896298 17.081638-20.70061-29.291291-2.285266-55.691363-6.220917-82.139394-0.800071-0.178893 1.094674-0.357025 2.18402-0.535918 3.278694 5.694133 2.821945 11.388266 5.645413 17.0824 8.467359-0.580832 1.436475-1.161664 2.87371-1.744019 4.311707-6.000916-2.179452-13.265503-2.920146-17.744685-6.843617-9.514836-8.330334-17.073265-6.100639-25.580969 0.857926-6.45462 5.280014-13.890488 9.412828-14.207928 19.294586-0.051004 1.605472-2.62326 3.12949-4.030046 4.692331-1.176128-0.046436-2.351494-0.089066-3.527622-0.13398-1.512599-10.546326-3.023676-21.090369-4.537037-31.635173 1.172322 0.407268 2.343882 0.814535 3.514681 1.221041 2.904921-1.673984 5.651503-4.342918 8.743692-4.836968 9.356496-1.489762 9.421963-21.683381 25.981386-11.207851 5.56396 3.520771 18.040049-2.432187 26.747962-5.688804 12.044462-4.506587 23.472313-10.222035 32.157389 5.731434 7.922305-10.70086 17.047382-12.248476 28.304714-9.936567 15.110007 3.104368 29.665825 4.915377 41.152292-10.933801 6.541402-9.026115 4.13662-10.199197-4.138143-12.735675-19.832788-6.079325-39.703638-12.144185-59.163414-19.291541-11.843493-4.349008-23.061239-8.38286-35.888264-4.19752-3.190389 1.040626-8.369919 0.171281-10.96349-1.907687-8.357739-6.696696-15.934438-14.365506-24.487818-22.284005-7.776146 20.446353-27.36914 36.76446-30.467419 61.884113-0.450659 3.657795-5.319599 6.769776-7.977876 9.935044-7.238705-16.961361-11.149235-32.083548-7.658914-47.654109 5.069149-7.768533 10.324803-15.821012 14.647929-22.446151 0.42097-3.592328-0.069274-6.85732 1.25682-9.000993 2.094954-3.389836 5.629427-5.852473 8.151441-9.027637 3.323608-4.17925 5.577662-9.460787 9.514074-12.846056 6.403616-5.508389 13.614155-10.169509 20.860472-14.567998 3.166029-1.919106 7.263826-2.301252 10.939891-3.385269 0.052526 4.419043 1.363395 9.341271-0.155295 13.130001-1.941943 4.848387-8.05324 8.417116-8.976633 13.192424-1.504987 7.796699-1.540765 16.493194 0.630313 23.993007 0.608237 2.099521 11.147712 1.143394 17.0824 1.948033 3.983609 0.539725 8.098154 1.193636 11.757472 2.735924 3.671498 1.549139 6.849707 4.266794 10.244872 6.472128 1.074882-1.061941 2.149002-2.126165 3.224645-3.188106-3.864855-4.231776-7.093307-11.076916-11.711035-12.195189-13.515954-3.272604-13.733671-2.377377-5.877594-14.313741 8.331857 12.474567 17.648007 18.620881 33.096007 9.863487 11.15837-6.325208 18.213614-18.299635 13.015814-30.296899-3.420286-7.899468-8.033448-14.606822-4.153368-24.896608 2.272325-6.030605 1.40907-13.127717 6.899188-18.603373 1.319242-1.31772 0.157578-6.709638-1.482149-9.137257-7.5531-11.184252-4.30105-24.465741-3.325891-35.357674 0.886092-9.896221 1.692254-18.879705-0.213149-28.76603-1.710524-8.886806-0.943947-18.295067-0.747545-27.459729 0.033495-1.603188 2.515924-3.301531 4.095513-4.699182 20.869607-18.458735 43.876798-22.51847 69.642751-10.953594 2.786928 1.249969 7.167148-1.048238 10.808196-1.698344 0.067751-0.935573 0.136263-1.871908 0.204014-2.807482 5.589081 3.65475 11.179684 7.307217 16.767243 10.961968 0.860971-0.695019 1.72042-1.388516 2.58063-2.081251-3.745339-5.471088-7.489917-10.942175-12.368753-18.070499 6.941818 2.764852 12.313944 4.902436 17.685308 7.042303 0.40879-0.557233 0.816819-1.112183 1.224848-1.669416-3.506307-4.863612-7.012614-9.727985-10.630825-14.746891 1.813292-0.534396 3.42866-1.009415 3.877035-1.143394-1.234744-7.405418-2.41011-14.451527-3.586999-21.499159 1.018549-0.196402 2.035576-0.391281 3.054126-0.588445 7.996146 9.549092 15.992293 19.098945 23.987678 28.648037 1.009415-0.828999 2.01959-1.657236 3.029005-2.486996-1.925957-2.981807-3.852675-5.962092-6.260502-9.689923 2.578346 1.237028 4.170876 2.002082 5.764168 2.767897 0.703393-0.924155 1.407547-1.846026 2.11094-2.769419-9.579542-7.865212-19.159845-15.729662-28.740148-23.596397 0.312873-0.527545 0.624984-1.052806 0.936335-1.581112 6.7477 3.003122 13.497684 6.003961 20.246145 9.006322 0.43924-0.937096 0.879241-1.871908 1.318481-2.809765-4.814131-3.607553-9.628262-7.215106-14.443154-10.821898 0.34789-0.430866 0.695019-0.858687 1.042909-1.288792 5.582991 2.877517 11.165982 5.756555 16.748973 8.631788 0.431627-0.733082 0.863255-1.469969 1.294882-2.205335-2.646858-2.722222-5.292194-5.443683-7.635315-7.855316 9.75539 6.109774 19.754379 12.370276 29.753368 18.634584 1.062702-1.728794 2.127687-3.45302 3.191151-5.181813-8.423206-5.450534-16.845652-10.903352-27.452878-17.769045 5.134616 0.92111 7.645972 1.374052 10.412347 1.869624 0.503185-3.650183 2.443605-7.814208 1.145678-10.264665-3.312189-6.262024-8.068465-11.759755-12.246954-17.563508 0.428582-0.412596 0.856404-0.826715 1.285747-1.240834 5.080567 2.663606 10.161135 5.324167 15.241702 7.987011 0.464361-0.787891 0.930245-1.576544 1.395367-2.362152-3.402777-2.904921-6.806316-5.813649-10.930756-9.33442 1.578828-3.31295 3.305338-6.941057 5.3569-11.249719-5.508389-2.63544-11.581623-5.541884-17.501086-8.373725 21.394868-1.734884 28.370942 15.459419 38.115675 29.073574 0.348651 0.487199 0.16443 1.35426 0.258824 2.359868-2.457308-0.919587-4.825549-1.807202-8.96217-3.356341 12.757751 14.526891 13.056921 20.034518 2.786928 28.428797 5.249564 7.269155 10.408541 14.408897 15.566755 21.549401 1.278896-0.564085 2.55627-1.127408 3.833644-1.691493 0.696542-3.632674 1.916822-7.255452 1.997514-10.901829 0.366921-16.462744-0.586922-33.016837 0.803116-49.379858 2.235023-26.291214-13.5563-42.115271-30.905136-57.369153-1.284986-1.129692-4.093229-0.527545-6.105207-0.719379 5.241191 7.474692 10.173315 14.510905 16.008279 22.835149C617.507035 112.522314 615.285714 111.448955 613.063632 110.375595zM602.945888 468.848684c1.909971 2.266235 4.122918 4.890256 8.194071 9.723418-1.215713-6.600018-1.862012-10.108609-2.601945-14.11734 2.274608 1.25073 3.818419 2.096476 6.738565 3.700425-0.686645-3.66084-0.924916-5.860846-1.540004-7.951233-0.713289-2.423813-1.759244-4.748663-2.6598-7.114621 1.331422 0.046436 2.662845 0.095156 3.995028 0.141592 0.861732-8.110334 1.723465-16.224473 2.569211-24.180274 1.520973 1.347409 3.540563 3.138624 7.155729 6.341194-2.060698-6.408184-3.426376-10.654424-5.818217-18.094859 7.03469 0.826715 12.028476 1.41516 17.965447 2.113985-1.077166-6.244515-2.235785-12.96481-3.469006-20.112166 3.796343 0.661524 6.325208 1.100003 10.766327 1.874953-4.300289-6.866455-7.437391-11.87242-10.573731-16.88143 0.471212-0.4027 0.943186-0.806161 1.414398-1.209623 2.687966 2.085819 5.375932 4.169354 10.526534 8.164382-2.891219-7.355176-4.666449-11.875465-6.419602-16.336377 3.382985-1.97696 6.864932-4.010253 10.587434-6.18666-4.330738-19.88912-23.069613-33.784175-49.315913-35.445979 1.401457 2.697101 2.557792 4.925273 3.78873 7.291992-3.263469-0.462077-5.703268-0.809206-8.457463-1.198204 0.820625 3.374611 2.667412 7.307217 1.817098 8.020506-10.134491 8.481061-20.499641 16.726136-31.311643 24.310447-1.379381 0.966785-5.870743-1.814815-8.519885-3.491843-5.535032-3.504023-10.525011-7.935247-16.238937-11.078439-12.527093-6.890815-25.364014-13.217545-38.07609-19.774172 20.728776 1.480627 40.119279 19.066972 60.499404 2.384989-3.645615-3.207137-7.441958-6.547492-12.962527-11.406536 9.882518-2.61108 16.471118-4.352053 23.056672-6.093788-0.278617-1.158619-0.556472-2.316477-0.83585-3.475096-3.981326 0.550382-7.948949 1.235505-11.947022 1.623741-9.026115 0.869345-18.325517 3.817657-25.552042-5.548735-1.039864-1.349692-8.436909-0.36007-10.057605 1.737167-7.939814 10.276083-17.644962 12.792007-30.848804 9.673175 3.008451 7.48002 6.451575 14.552012 11.102037 20.712029 8.526736 11.295394 25.192733 16.429249 24.914878 34.416011-2.692533-1.026162-5.748943-2.19011-6.263547-2.384989-6.240709 7.183134-11.48799 13.222112-17.598526 20.256041 12.965572 15.238657 30.558769 31.014756 41.76738 50.469965 11.210134 19.449119 16.034161 42.579632 23.609338 63.960797 2.981046-4.38631 5.034893-10.805912 8.944661-12.26903 4.488317-1.681596 10.620929 1.034536 16.901223 1.967064-1.77523-7.336145-3.704993-15.306409-5.633233-23.278956 0.353219-0.107336 0.704915-0.212388 1.057373-0.316679 1.976199 4.033852 3.950876 8.064659 5.927075 12.096988 0.690452-0.238271 1.380903-0.47578 2.071355-0.714812-2.051563-6.562717-4.105409-13.128479-5.590603-17.878665C598.748368 471.539695 600.828097 470.207511 602.945888 468.848684zM603.101944 319.666962c0.777995-1.003325 1.558274-2.008933 2.337792-3.01378-7.792893-7.079604-15.280526-14.541355-23.492867-21.092653-4.864373-3.881602-8.928675-6.426454-5.449011-13.919415 0.96983-2.090386-3.172881-8.740647-6.336626-10.084249-5.798424-2.463398-12.803426-4.071153-18.964965-3.306099-16.389664 2.040905-32.732131 4.954962-48.824147 8.684314-8.685837 2.0135-12.570484 9.189783-12.902388 21.159643 6.714205-1.043671 12.686955-0.892182 17.775135-2.939178 33.473586-13.458099 63.254359-7.091784 87.356225 18.972578C596.826979 316.534428 600.239653 317.846058 603.101944 319.666962zM575.22429 592.032273c1.461596-0.117232 2.923191-0.236748 4.383265-0.355503 3.224645-17.762955 6.829154-35.472623 9.300925-53.34063 0.411074-2.970389-4.11226-6.625139-6.355657-9.963211-2.359868 2.866859-6.322163 5.493925-6.797181 8.645491-1.827756 12.119064-3.049558 24.388094-3.448452 36.636571C572.107742 579.742689 574.179858 585.90499 575.22429 592.032273zM464.187171 930.548491c-8.158292 2.280698-13.41014 6.71725-12.520242 15.400042 0.942425 9.19435 4.129008 17.41811 16.898178 22.905945C466.95659 954.786619 465.666275 943.48818 464.187171 930.548491zM503.052675 317.730348c20.646562-20.939642 45.022476-22.713349 74.20567-12.591038C558.173102 284.909912 512.241696 294.197135 503.052675 317.730348zM363.030286 700.350977c5.408665 15.5089 4.213506 30.910465 17.474442 40.963503C384.062038 733.970722 374.236614 709.530863 363.030286 700.350977zM597.573002 250.281513c1.100003-1.002563 2.200767-2.003604 3.301531-3.00769-7.506664-8.353933-15.014089-16.707104-22.520753-25.063321-1.185263 1.077927-2.370525 2.15357-3.556549 3.231497C582.389154 233.72133 589.981078 242.002944 597.573002 250.281513zM701.720068 717.896976c1.141872 0.277855 2.284505 0.558756 3.427137 0.840418 2.95288-11.37228 5.904999-22.743799 8.857118-34.117602-1.273567-0.319724-2.547135-0.636403-3.822225-0.954605C707.362436 695.07553 704.542013 706.485872 701.720068 717.896976z" p-id="8273" fill="#d81e06"></path><path d="M315.415 334.709218c17.334373-9.429576 34.668745-18.861436 54.07904-29.419181-23.326915-2.645336-36.822315 10.673455-51.465677 21.418467 13.914848-18.233406 31.367214-28.539939 55.383819-25.853496 4.320842 0.48187 9.628262-1.527063 13.427649-4.001879 8.403414-5.473371 22.918125 1.046716 25.469066 12.762319 1.172322 5.383544 0.199447 11.230688 0.199447 17.722609-4.35586-1.043671-7.865212-1.887133-12.722734-3.052603 1.67779 4.338351 2.846305 7.358982 3.993506 10.325565-19.385174 10.13373-19.385174 10.13373-30.691987 4.279735 5.030325-1.68997 9.138018-3.070112 13.903429-4.671777-0.853359-3.528383-1.62298-6.713444-2.329418-9.63359-6.527699 2.844783-12.599412 7.513515-18.706902 7.559951-5.704791 0.04263-11.446882-4.821743-15.872777-6.913652-10.863005 4.907003-21.359851 9.649577-31.855935 14.390628C317.287669 337.986389 316.350573 336.346662 315.415 334.709218z" p-id="8274" fill="#d81e06"></path><path d="M353.488045 275.849542c0.124845-2.352256 0.272527-5.153647 0.420209-7.955039-0.803116-0.814535-1.606233-1.630593-2.410872-2.442844-9.182932 6.797181-18.365102 13.598169-27.453639 20.326076-5.018906-15.914646 0.420209-22.676809 16.019698-20.690714 3.157656 0.401178 6.907562-3.03205 10.232692-4.961052 4.62458-2.681115 9.059609-7.910887 13.655262-7.999191 12.987648-0.252734 26.668792-0.522977 38.795469 3.290874 8.061614 2.536478 14.689037 11.478855 20.344346 18.797491 1.937376 2.506789-1.026923 8.802308-1.625264 12.563633C397.708927 282.958834 375.79641 279.437302 353.488045 275.849542z" p-id="8275" fill="#d81e06"></path><path d="M333.633942 368.524604c2.034054-2.723744 3.914336-7.979399 7.289708-9.240786 9.978436-3.734681 20.521717-5.991781 30.893718-8.637117 9.976913-2.543329 20.016248-4.850671 31.744793-7.677184-0.652389 13.807512-11.542038 20.777496-19.168218 29.105547-2.885129 3.150804-9.4684 2.914056-14.367029 4.221119-0.363876-1.055089-0.72623-2.108656-1.089346-3.163746 2.420768-2.669696 4.840013-5.339392 7.26002-8.009088-0.366921-1.123602-0.735365-2.246442-1.101525-3.36776C362.556789 368.112769 350.64174 378.184077 333.633942 368.524604z" p-id="8276" fill="#d81e06"></path><path d="M613.063632 110.375595c-4.045271 11.069304-11.334979 4.454822-17.490428 3.060977-6.08846-1.379381-10.037813-4.225686-4.53932-12.132767 7.287425 3.054887 14.8253 6.216349 22.377639 9.390752C613.430554 110.708261 613.063632 110.375595 613.063632 110.375595z" p-id="8277" fill="#d81e06"></path><path d="M450.888934 509.939315c-3.321324-2.343121-7.93753-4.014059-9.598573-7.216629-1.660281-3.204092-0.363876-7.939814-0.363876-12.096988 2.82499-0.42097 6.758358-1.007892 11.421-1.703672 0.557233 5.770258 1.16547 12.081763 1.774469 18.393268C453.044787 508.189207 451.96686 509.065403 450.888934 509.939315z" p-id="8278" fill="#d81e06"></path><path d="M594.188494 127.318686c4.376413-0.996473 8.334902-2.675025 12.24467-2.567689 3.806239 0.10353 7.810402 1.575783 11.210896 3.408106 1.200488 0.647822 1.775991 4.60631 0.953843 6.164584-0.632597 1.197443-4.248524 1.915299-5.933926 1.269761C606.342576 133.17192 600.267819 130.104092 594.188494 127.318686z" p-id="8279" fill="#d81e06"></path><path d="M472.283802 612.38956c3.702709-3.166791 7.404657-6.333581 14.067097-12.028476-0.71405 6.701264 0.346368 12.791246-2.046234 14.830629-2.537239 2.168034-8.355455 0.48796-12.740242 0.48796C471.804977 614.582715 472.045531 613.487279 472.283802 612.38956z" p-id="8280" fill="#d81e06"></path><path d="M389.568143 968.49593c12.846817-27.67973 25.695157-55.36022 37.827162-81.502229-5.037938-4.17316-8.837325-7.322442-13.277683-11.002314 4.476898-3.211704 6.901472-4.949633 8.850266-6.348806 5.78396 11.045705 9.119748 4.283541 14.459901-4.167831-0.5854 6.977597 0.137786 11.354771-1.401457 14.68523-13.557822 29.359803-27.506926 58.53843-41.411116 87.736848-0.392804 0.82367-1.570454 1.277374-2.381944 1.903119C391.344134 969.364513 390.457281 968.930602 389.568143 968.49593z" p-id="8281" fill="#d81e06"></path><path d="M399.386717 834.804838c-6.402855-2.289833-12.80571-4.579666-19.209326-6.868738-0.001522-0.697303-0.002284-1.394606-0.003806-2.094954 13.055399 1.163948 26.111559 2.327134 41.91963 3.733159-6.886247 1.480627-11.227643 2.413155-16.066895 3.453781 5.330257 4.506587 9.606947 8.127081 16.144542 13.65374-15.091737 4.049838-26.980143 7.237944-38.868549 10.42681-0.429344-1.371007-0.858687-2.740492-1.289554-4.110738 7.136698-2.302774 14.274157-4.609355 23.412936-7.55919-10.451932-1.039103-18.990086-1.889417-27.52748-2.740492-0.094395-0.366921-0.186506-0.733082-0.2809-1.100003 6.725624-0.920349 13.450487-1.840697 20.176872-2.761046C398.326299 837.491282 398.85765 836.149202 399.386717 834.804838z" p-id="8282" fill="#d81e06"></path><path d="M511.459133 908.30407c9.113658 23.038402 14.122668 48.387952 36.806329 63.776575-1.105332 1.186785-2.210663 2.375854-3.315234 3.565684-4.765411-3.70956-11.586191-6.433305-13.925505-11.307574-8.585352-17.892367-15.680942-36.499546-23.338334-54.838004C508.94321 909.104141 510.201552 908.702203 511.459133 908.30407z" p-id="8283" fill="#d81e06"></path><path d="M346.022488 912.324219c-2.971911-10.155045-5.943061-20.307045-8.91345-30.460568 1.020072-0.328859 2.040144-0.656957 3.060977-0.985816 4.425894 12.728824 8.85255 25.455364 13.278445 38.184187-0.634119 0.285468-1.266716 0.572458-1.900836 0.857926-1.948794-2.652187-3.896827-5.308181-5.849428-7.969503C345.695152 911.945118 346.022488 912.324219 346.022488 912.324219z" p-id="8284" fill="#d81e06"></path><path d="M404.924033 817.110396c-9.766809 0.967546-19.53514 1.934331-29.301948 2.903399-0.110381-0.94547-0.220762-1.889417-0.330382-2.83717 9.831515-1.351215 19.661507-2.703191 29.493022-4.055928C404.831161 814.450596 404.877597 815.781257 404.924033 817.110396z" p-id="8285" fill="#d81e06"></path></svg>