<?xml version="1.0" standalone="no"?><!DOCTYPE svg PUBLIC "-//W3C//DTD SVG 1.1//EN" "http://www.w3.org/Graphics/SVG/1.1/DTD/svg11.dtd"><svg t="1578510049669" class="icon" viewBox="0 0 1024 1024" version="1.1" xmlns="http://www.w3.org/2000/svg" p-id="3399" width="64" height="64" xmlns:xlink="http://www.w3.org/1999/xlink"><defs><style type="text/css"></style></defs><path d="M923.428571 508.342857c0 226.742857-184.685714 411.428571-411.428571 411.428572S100.571429 735.085714 100.571429 508.342857 285.257143 96.914286 512 96.914286 923.428571 281.6 923.428571 508.342857z m-614.4-18.285714H493.714286V305.371429H309.028571v184.685714z m38.4-148.114286h109.714286v109.714286h-109.714286v-109.714286z m182.857143-36.571428v184.685714h184.685715V305.371429H530.285714z m146.285715 146.285714h-109.714286v-109.714286h109.714286v109.714286zM309.028571 711.314286H493.714286V526.628571H309.028571v184.685715z m38.4-148.114286h109.714286v109.714286h-109.714286v-109.714286z m367.542858 73.142857v-109.714286h-36.571429v36.571429h-36.571429v-36.571429h-109.714285v184.685715h36.571428v-109.714286h36.571429v36.571429c-1.828571-1.828571 109.714286-1.828571 109.714286-1.828572z m-109.714286 74.971429h36.571428v-36.571429h-36.571428v36.571429z m73.142857 0h36.571429v-36.571429h-36.571429v36.571429zM384 415.085714h36.571429v-36.571428h-36.571429v36.571428z m257.828571-36.571428h-36.571428v36.571428h36.571428v-36.571428zM384 636.342857h36.571429v-36.571428h-36.571429v36.571428z" fill="#8CA2EA" p-id="3400"></path></svg>